HIERARCHY
ROOT root
{
	OFFSET	0	13.1	24.9
	CHANNELS 6  Xposition Yposition Zposition Xrotation Yrotation Zrotation
	JOINT spine_1
	{
		OFFSET	0	9.99999	0
		CHANNELS 3  Xrotation Yrotation Zrotation
		JOINT spine_2
		{
			OFFSET	0	112	-10
			CHANNELS 3  Xrotation Yrotation Zrotation
			JOINT spine_3
			{
				OFFSET	0	206.5	19.3
				CHANNELS 3  Xrotation Yrotation Zrotation
				JOINT spine_4
				{
					OFFSET	0	110.4	14.6
					CHANNELS 3  Xrotation Yrotation Zrotation
					JOINT neck_1
					{
						OFFSET	0	71.8	-50.3
						CHANNELS 3  Xrotation Yrotation Zrotation
						JOINT neck_2
						{
							OFFSET	0	86.2	-25.8
							CHANNELS 3  Xrotation Yrotation Zrotation
							JOINT head_ee
							{
								OFFSET	0	179.8	-8.7
								CHANNELS 3  Xrotation Yrotation Zrotation
								End Site
								{
									OFFSET	1	0	0
								}
							}
						}
					}
					JOINT left_clavicle
					{
						OFFSET	-43.2	22.4	-70.8
						CHANNELS 3  Xrotation Yrotation Zrotation
						JOINT left_shoulder
						{
							OFFSET	-93.9	-5.79999	48.7
							CHANNELS 3  Xrotation Yrotation Zrotation
							JOINT left_elbow
							{
								OFFSET	-291.4	-30.8	15.2
								CHANNELS 3  Xrotation Yrotation Zrotation
								JOINT left_lowarm_twist
								{
									OFFSET	-110.7	-3.89999	13.6
									CHANNELS 3  Xrotation Yrotation Zrotation
									JOINT left_hand
									{
										OFFSET	-110.7	-3.89999	13.6
										CHANNELS 3  Xrotation Yrotation Zrotation
										JOINT left_ee
										{
											OFFSET	-80.8	-5.10001	12.1
											CHANNELS 3  Xrotation Yrotation Zrotation
											End Site
											{
												OFFSET	1	0	0
											}
										}
									}
								}
							}
						}
					}
					JOINT right_clavicle
					{
						OFFSET	43.2	22.4	-70.8
						CHANNELS 3  Xrotation Yrotation Zrotation
						JOINT right_shoulder
						{
							OFFSET	93.9	-5.79999	48.7
							CHANNELS 3  Xrotation Yrotation Zrotation
							JOINT right_elbow
							{
								OFFSET	291.4	-30.8	15.2
								CHANNELS 3  Xrotation Yrotation Zrotation
								JOINT right_lowarm_twist
								{
									OFFSET	110.7	-3.89999	13.6
									CHANNELS 3  Xrotation Yrotation Zrotation
									JOINT right_hand
									{
										OFFSET	110.7	-3.89999	13.6
										CHANNELS 3  Xrotation Yrotation Zrotation
										JOINT right_ee
										{
											OFFSET	80.8	-5.10001	12.1
											CHANNELS 3  Xrotation Yrotation Zrotation
											End Site
											{
												OFFSET	1	0	0
											}
										}
									}
								}
							}
						}
					}
				}
			}
		}
	}
	JOINT left_hip
	{
		OFFSET	-82.8	-127.5	0.300001
		CHANNELS 3  Xrotation Yrotation Zrotation
		JOINT left_knee
		{
			OFFSET	-28.2	-396.7	2.2
			CHANNELS 3  Xrotation Yrotation Zrotation
			JOINT left_ankle
			{
				OFFSET	-11.7	-411.3	35.4
				CHANNELS 3  Xrotation Yrotation Zrotation
				JOINT left_toes
				{
					OFFSET	0	-60	-88.6
					CHANNELS 3  Xrotation Yrotation Zrotation
					JOINT left_foot_ee
					{
						OFFSET	-22.5	-16.5	-42.2
						CHANNELS 3  Xrotation Yrotation Zrotation
						End Site
						{
							OFFSET	1	0	0
						}
					}
				}
			}
		}
	}
	JOINT right_hip
	{
		OFFSET	82.8	-127.5	0.300001
		CHANNELS 3  Xrotation Yrotation Zrotation
		JOINT right_knee
		{
			OFFSET	28.2	-396.7	2.2
			CHANNELS 3  Xrotation Yrotation Zrotation
			JOINT right_ankle
			{
				OFFSET	11.7	-411.3	35.4
				CHANNELS 3  Xrotation Yrotation Zrotation
				JOINT right_toes
				{
					OFFSET	0	-60	-88.6
					CHANNELS 3  Xrotation Yrotation Zrotation
					JOINT right_foot_ee
					{
						OFFSET	22.5	-16.5	-42.2
						CHANNELS 3  Xrotation Yrotation Zrotation
						End Site
						{
							OFFSET	1	0	0
						}
					}
				}
			}
		}
	}
}
MOTION
Frames: 6
Frame Time: 0.02
2502.66345908 762.169 -1536.80601462 43.7093796484 83.7005058126 -51.0102059273 -0.674507 1.01274 3.98986 -0.665971 0.75702 4.04608 -0.605428 -0.153351 4.11333 -0.628687 0.497643 4.08604 -1.97111 9.87062 -5.23445 -1.56312 21.9551 -4.28423 -0.0 0.0 -0.0 -5.56325 20.967 -5.63556 -29.5686 -52.7062 49.1393 0.776901 -21.0493 0.144338 -66.8067 -6.13935 5.26218 1.54732 3.31362 11.7045 -0.0 0.0 -0.0 8.05342 -5.17097 -15.5387 -8.07267 33.4355 -63.135 2.0212 45.0305 -0.837911 -3.9881 0.157475 -0.484737 0.667459 5.65654 -2.1038 0.0 0.0 0.0 -1.90248 -2.94533 2.33649 -21.3942 0.276464 3.25243 36.2766 12.4609 -4.5548 -13.0203 0.0 0.0 -0.0 0.0 -0.0 2.2679 1.62925 0.871618 -5.53093 -0.187887 -0.827712 12.03 5.18184 1.7417 -10.4867 0.0 0.0 0.0 0.0 0.0 
2495.11540489 761.777 -1525.42520233 53.9063490434 84.8910214811 -61.355041199 -0.748881 0.881543 4.01308 -0.74014 0.62461 4.06093 -0.688788 -0.292093 4.09823 -0.712041 0.358255 4.09298 -1.43791 10.4655 -7.10431 -0.816386 24.4767 -6.35419 -0.0 0.0 -0.0 -5.68373 21.0239 -5.79778 -29.8469 -53.4852 50.3293 0.684003 -18.7182 0.112736 -67.3815 -6.21239 5.27108 1.93903 2.11597 13.9039 -0.0 0.0 -0.0 8.08896 -4.97723 -15.6151 -7.74938 33.4713 -62.1078 2.25594 48.1702 -1.00853 -1.2511 0.0457581 -0.153213 0.657835 9.50787 -0.402487 0.0 0.0 0.0 -0.301727 -4.70504 2.05256 -18.9468 0.306684 2.87813 32.9194 10.5927 -4.20656 -14.3655 0.0 0.0 -0.0 0.0 -0.0 2.30894 0.641322 0.957045 -4.38077 -0.155418 -0.654189 10.8617 7.31091 1.5945 -11.001 0.0 0.0 0.0 0.0 0.0 
2483.8758943 754.062 -1516.50257045 68.6263407977 87.0646255268 -75.0317262644 -0.610476 0.784876 4.18815 -0.600869 0.517027 4.22951 -0.55567 -0.424894 4.23974 -0.58066 0.249401 4.25364 -2.44751 11.3076 -8.40483 -1.736 27.0357 -7.41661 -0.0 0.0 -0.0 -5.49047 20.5679 -5.63633 -30.0719 -54.2639 50.7449 0.627769 -17.2747 0.0953606 -67.5024 -6.22776 5.27286 2.51451 0.0189271 17.0634 -0.0 0.0 -0.0 8.15594 -4.10943 -15.7797 -8.14672 33.4461 -60.9283 2.578 51.9289 -1.25556 2.86731 -0.0921639 0.354597 0.607263 14.8019 2.21426 0.0 0.0 0.0 2.33221 -8.21631 0.557601 -15.334 0.322023 2.32413 23.8509 8.76809 -3.19837 -15.7735 0.0 0.0 -0.0 0.0 -0.0 2.33338 -0.160538 0.624773 -3.5899 -0.131071 -0.535256 11.6691 12.4805 1.75734 -11.923 0.0 0.0 0.0 0.0 0.0 
2465.2428243 766.582 -1520.92122827 115.356903856 87.2710881856 -120.946740156 -0.640644 0.789876 4.09095 -0.63149 0.528185 4.13282 -0.586551 -0.394933 4.14766 -0.610453 0.264485 4.15799 -2.46787 11.0884 -8.73502 -1.7409 26.8961 -7.79379 -0.0 0.0 -0.0 -5.65436 19.0367 -6.3006 -32.3805 -54.6643 48.1785 0.647088 -17.7733 0.101178 -65.4141 -5.96272 5.23758 2.9777 -2.898 19.1473 -0.0 0.0 -0.0 8.83166 -2.70098 -17.1635 -9.79559 31.8285 -60.4862 2.81535 54.3482 -1.4455 6.12683 -0.175225 0.762631 0.597211 19.6896 4.39593 0.0 0.0 0.0 5.52286 -11.5112 -1.05781 -11.4443 0.299479 1.72787 11.9607 9.64397 -1.68917 -16.6092 0.0 0.0 -0.0 0.0 -0.0 1.25906 -0.524529 -0.365031 -3.99876 -0.143863 -0.5967 13.1584 18.1721 2.05396 -13.3252 0.0 0.0 0.0 0.0 0.0 
2444.19281161 762.321 -1529.52963032 168.071074096 87.2910019707 -173.14503364 -0.855544 0.49016 3.63761 -0.84822 0.257855 3.66138 -0.826325 -0.570376 3.62591 -0.844669 0.00902564 3.67043 -1.89075 9.68431 -7.88675 -1.28394 23.6979 -7.17922 -0.0 0.0 -0.0 -5.11866 16.1831 -6.20734 -32.3904 -55.4232 46.0212 0.963136 -25.5058 0.217991 -60.027 -5.28611 5.10202 3.53413 -5.73657 21.9331 -0.0 0.0 -0.0 9.82162 -4.11228 -19.0468 -7.97194 23.1523 -61.8359 2.2471 48.0584 -1.00195 2.2851 -0.0748891 0.282235 1.49903 27.8683 2.15913 0.0 0.0 0.0 6.694 -9.17885 -1.3465 -0.300929 0.0122742 0.0445494 -0.297009 12.9202 0.0436294 -22.0589 0.0 0.0 -0.0 0.0 -0.0 3.2173 -10.748 -0.20819 -6.73168 -0.218058 -1.00951 2.79005 17.2264 0.449248 -14.1852 0.0 0.0 0.0 0.0 0.0 
2434.41242947 767.703 -1536.22317401 170.581184541 87.6879754005 -174.87110406 -0.94107 0.589312 3.37058 -0.934828 0.373766 3.4012 -0.907574 -0.403552 3.3978 -0.923656 0.137807 3.41888 -0.0521134 9.43373 -4.83525 0.404752 20.7541 -4.27216 -0.0 0.0 -0.0 -4.50754 15.1568 -5.46683 -29.031 -56.3224 46.8796 0.82092 -22.1294 0.160536 -59.0965 -5.17061 5.07216 3.52526 -5.60743 21.9257 -0.0 0.0 -0.0 10.0862 -3.19407 -19.6409 -10.6344 21.4172 -60.5693 1.87414 42.8692 -0.735829 3.38393 -0.106876 0.418948 2.1745 26.6387 -2.74067 0.0 0.0 0.0 6.59339 -10.2757 -1.55703 -3.30938 0.122041 0.493153 0.412062 7.68193 -0.060247 -21.8141 0.0 0.0 -0.0 0.0 -0.0 3.28004 -11.4997 -0.274865 -8.24696 -0.250683 -1.23974 5.97496 16.3849 0.945588 -11.3247 0.0 0.0 0.0 0.0 0.0 
